<?xml version="1.0" encoding="UTF-8"?>
<svg width="335px" height="417px" viewBox="0 0 335 417" version="1.1" xmlns="http://www.w3.org/2000/svg" xmlns:xlink="http://www.w3.org/1999/xlink">
    <!-- Generator: Sketch 43.2 (39069) - http://www.bohemiancoding.com/sketch -->
    <title>Iter 1</title>
    <desc>Created with Sketch.</desc>
    <defs></defs>
    <g id="Page-1" stroke="none" stroke-width="1" fill="none" fill-rule="evenodd">
        <g id="Iter-1" transform="translate(-5.000000, 0.000000)">
            <path d="M7,165 C7,73.8730163 80.8730163,0 172,0 C263.126984,0 337,73.8730163 337,165 L7,165 Z M7,165 L337,165 L337,285 L7,285 L7,165 Z" id="Combined-Shape" fill="#96CCE7"></path>
            <rect id="Bottom_Rect" fill="#537587" x="7" y="285" width="330" height="35"></rect>
            <g id="Face" transform="translate(87.000000, 99.000000)">
                <path d="M20.5267585,137.339725 C20.5267585,134.852654 22.4016281,133.568302 24.7436355,134.401793 C24.7436355,134.401793 28.9096325,136.387602 40.5320332,138.505913 C51.7859767,140.877228 61.5042032,139.224932 60.4424844,142.200161 C59.3807655,145.17539 24.993772,140.328623 24.993772,140.328623 C22.5267085,139.999193 20.5267585,137.719091 20.5267585,135.228896 L20.5267585,137.339725 Z" id="Rectangle-3" fill="#406376" transform="translate(40.524405, 138.657258) rotate(15.000000) translate(-40.524405, -138.657258) "></path>
                <g id="eye1" transform="translate(129.000000, 5.000000)">
                    <circle id="Oval-5" fill="#FFFFFF" cx="21" cy="21" r="21"></circle>
                    <circle id="Oval-5" fill="#406376" cx="21" cy="21" r="9.33333333"></circle>
                </g>
                <g id="eye2" transform="translate(8.000000, 8.000000)">
                    <circle id="Oval-5" fill="#FFFFFF" cx="18" cy="18" r="18"></circle>
                    <circle id="Oval-5" fill="#406376" cx="18" cy="18" r="8"></circle>
                </g>
                <rect id="Rectangle-3" fill="#406376" transform="translate(28.210609, 11.593599) rotate(15.000000) translate(-28.210609, -11.593599) " x="0.210608839" y="7.09359948" width="56" height="9" rx="4.5"></rect>
            </g>
            <g id="Lu-Glases" transform="translate(197.000000, 85.000000)">
                <circle id="Oval-2" stroke="#000000" stroke-width="7" cx="39.5" cy="39.5" r="39.5"></circle>
                <path d="M71.7190821,59.0607097 C90.8402748,73.1136807 114.450665,81.4152923 140,81.4152923 L140,76.9761482 C116.368311,76.9761482 94.4617822,69.5898635 76.4631181,57 L72.8720087,57 C72.5091208,57.7002737 72.1245154,58.3874728 71.7190821,59.0607097 Z" id="Combined-Shape" fill="#000000"></path>
            </g>
            <g id="Le-Bow" transform="translate(114.000000, 273.000000)" fill="#AE3A53">
                <path d="M58,37.9053878 C44.4054278,47.9106788 20.9911739,63.298722 11.372549,58.4810127 C-2.56851774,51.498309 -3.6353503,9.03603862 11.372549,1.51898734 C21.6725637,-3.6400117 44.6179257,11.6973146 58,21.8274274 C71.3820743,11.6973146 94.3274363,-3.6400117 104.627451,1.51898734 C119.63535,9.03603862 118.568518,51.498309 104.627451,58.4810127 C95.0088261,63.298722 71.5945722,47.9106788 58,37.9053878 Z" id="Combined-Shape"></path>
            </g>
            <text id="Privacy-Bot" font-family="Menlo-Regular, Menlo" font-size="52" font-weight="normal" fill="#304A58">
                <tspan x="0" y="406">Privacy Bot</tspan>
            </text>
        </g>
    </g>
</svg>